<?xml version="1.0" encoding="UTF-8" standalone="no"?>
<!-- Created with Inkscape (http://www.inkscape.org/) -->

<svg
   xmlns:dc="http://purl.org/dc/elements/1.1/"
   xmlns:cc="http://creativecommons.org/ns#"
   xmlns:rdf="http://www.w3.org/1999/02/22-rdf-syntax-ns#"
   xmlns:svg="http://www.w3.org/2000/svg"
   xmlns="http://www.w3.org/2000/svg"
   xmlns:sodipodi="http://sodipodi.sourceforge.net/DTD/sodipodi-0.dtd"
   xmlns:inkscape="http://www.inkscape.org/namespaces/inkscape"
   id="svg3042"
   inkscape:export-ydpi="69"
   inkscape:export-filename="/home/pydubreucq/Documents/perso/cnam/svg/bad.png"
   viewBox="0 0 686.15 645.35"
   sodipodi:docname="good.svg"
   inkscape:export-xdpi="69"
   version="1.1"
   inkscape:version="0.91 r13725">
  <defs
     id="defs3347">
    <filter
       inkscape:label="Opacity"
       style="color-interpolation-filters:sRGB;"
       id="filter4177">
      <feColorMatrix
         values="1 0 0 0 0 0 1 0 0 0 0 0 1 0 0 0 0 0 5 -1 "
         result="colormatrix"
         id="feColorMatrix4179" />
      <feComposite
         in2="colormatrix"
         operator="arithmetic"
         k2="0.33"
         result="fbSourceGraphic"
         id="feComposite4181" />
      <feColorMatrix
         result="fbSourceGraphicAlpha"
         in="fbSourceGraphic"
         values="0 0 0 -1 0 0 0 0 -1 0 0 0 0 -1 0 0 0 0 1 0"
         id="feColorMatrix4183" />
      <feColorMatrix
         id="feColorMatrix4185"
         values="1 0 0 0 0 0 1 0 0 0 0 0 1 0 0 0 0 0 5 -1 "
         result="colormatrix"
         in="fbSourceGraphic" />
      <feComposite
         id="feComposite4187"
         in2="colormatrix"
         operator="arithmetic"
         k2="1"
         result="composite" />
    </filter>
  </defs>
  <sodipodi:namedview
     id="base"
     bordercolor="#666666"
     inkscape:pageshadow="2"
     inkscape:window-y="0"
     pagecolor="#ffffff"
     inkscape:window-maximized="1"
     inkscape:zoom="3.959798"
     inkscape:window-x="-4"
     inkscape:window-height="1023"
     showgrid="false"
     borderopacity=".5"
     inkscape:current-layer="layer1"
     inkscape:cx="666.14302"
     inkscape:cy="342.30526"
     inkscape:window-width="1920"
     inkscape:pageopacity="0.0"
     inkscape:document-units="px" />
  <g
     id="layer1"
     inkscape:label="Calque 1"
     inkscape:groupmode="layer"
     transform="translate(-26.814 -169.83)">
    <rect
       id="rect3071"
       style="color:#000000;fill:#ffffff;fill-rule:evenodd;stroke:#859900;stroke-width:91.94300079;stroke-linecap:round;stroke-linejoin:round"
       ry="60.587002"
       height="553.40997"
       width="594.21002"
       y="-766.13501"
       x="72.785004"
       transform="scale(1,-1)" />
    <g
       id="g3871"
       transform="matrix(10.209,0,0,10.209,-3310,-4441.865)">
      <path
         id="rect9675"
         style="color:#000000;fill:#859900;stroke-opacity:0"
         inkscape:connector-curvature="0"
         d="m 358.34,463.49 c -1.5517,0.13437 -2.8862,1.5173 -3.1442,3.3728 l -0.28583,2.1152 c -0.0574,0.10167 -0.12104,0.19679 -0.1715,0.30489 l -5.5261,11.853 c -0.22363,0.47909 -0.35442,0.98155 -0.40017,1.4673 l -2.9917,0 c -1.9589,0 -3.5443,1.5663 -3.5443,3.5253 l 0,11.186 c 0,1.9589 1.5854,3.5443 3.5443,3.5443 l 5.2022,0 c 1.1908,1.0775 2.7573,1.734 4.4971,1.734 l 7.0887,0 c 3.7219,0 6.7075,-2.9857 6.7075,-6.7076 l 0,-11.529 c 0,-3.7219 -2.9857,-6.7076 -6.7075,-6.7076 l -2.1914,0 1.3529,-9.8326 c 0.29477,-2.1206 -0.92096,-4.0379 -2.744,-4.3066 -0.22788,-0.0336 -0.46434,-0.0382 -0.686,-0.019 z" />
      <rect
         id="rect9623-6"
         ry="2.8259001"
         style="color:#000000;fill:#859900;stroke:#ffffff;stroke-width:1.08029997"
         transform="matrix(0,1,-1,0,0,0)"
         height="15.217"
         width="6.0861001"
         y="-376.28"
         x="477.64001" />
      <rect
         id="rect9623-6-5"
         style="color:#000000;fill:#859900;stroke:#ffffff;stroke-width:1.08029997"
         inkscape:transform-center-x="-2.9954163"
         inkscape:transform-center-y="-6.844065"
         transform="matrix(0,1,-1,0,0,0)"
         ry="3.0431001"
         width="6.0861001"
         y="-378.63"
         x="483.89999"
         height="17.563" />
      <rect
         id="rect9671"
         style="color:#000000;fill:#859900;stroke:#ffffff;stroke-width:1.08029997"
         inkscape:transform-center-x="-2.6638674"
         inkscape:transform-center-y="-6.844065"
         transform="matrix(0,1,-1,0,0,0)"
         ry="3.0431001"
         width="6.0861001"
         y="-376.69"
         x="490.16"
         height="15.619" />
      <rect
         id="rect9673"
         style="color:#000000;fill:#859900;stroke:#ffffff;stroke-width:1.08029997"
         inkscape:transform-center-x="-2.3094439"
         inkscape:transform-center-y="-6.844065"
         transform="matrix(0,1,-1,0,0,0)"
         ry="3.0431001"
         width="6.0861001"
         y="-374.60999"
         x="496.42001"
         height="13.541" />
    </g>
    <path
       style="opacity:0.11000001;fill:#dc322f;stroke-width:10;stroke-miterlimit:4;stroke-dasharray:none"
       d="m 97.178986,174.67823 c -31.701537,12.47171 -58.817373,42.57248 -65.269688,72.45466 -2.300917,10.65608 -2.975859,82.91825 -2.341455,250.68611 l 0.89134,235.71428 7.629092,16.27571 c 14.942148,31.87719 45.032839,53.83952 81.522775,59.50113 13.01475,2.01931 101.3996,2.75694 263.78202,2.20144 l 244.20897,-0.83542 16.41903,-6.63028 c 22.91986,-9.25544 45.49591,-30.70994 57.08351,-54.24765 l 9.3546,-19.00191 0,-241.48864 0,-241.48866 -7.65731,-16.33734 c -10.11497,-21.58092 -29.7564,-42.13352 -50.12109,-52.4462 l -16.50731,-8.35932 -262.85714,-0.61125 C 124.59417,169.48651 109.74505,169.7346 97.178986,174.67823 Z m 521.689624,89.4908 c 3.93149,5.613 4.44772,31.73634 4.44772,225.07854 0,193.34221 -0.51623,219.46554 -4.44772,225.07855 l -4.44774,6.35002 -243.91963,0 c -217.93557,0 -244.39789,-0.47829 -248.4094,-4.4898 -4.00449,-4.00448 -4.4898,-28.45511 -4.4898,-226.2036 0,-202.29754 0.41409,-222.17137 4.72854,-226.93877 4.51051,-4.98406 15.96389,-5.22497 248.4094,-5.22497 l 243.68089,0 4.44774,6.35003 z"
       id="path4149"
       inkscape:connector-curvature="0" />
    <path
       style="opacity:0.11000001;fill:#dc322f;fill-opacity:0.33000004;stroke-width:10;stroke-miterlimit:4;stroke-dasharray:none"
       d="m 330.34988,301.39043 c -8.31614,7.70257 -10.56781,12.41386 -13.20689,27.63346 -2.20078,12.69191 -11.80441,36.70591 -31.15463,77.90254 -15.38522,32.75514 -29.45152,64.03437 -31.25845,69.5094 l -3.28531,9.9546 -18.63234,0 c -21.85141,0 -34.89208,5.28179 -41.76433,16.91557 -4.21644,7.13787 -4.87446,17.1789 -4.87446,74.38143 0,53.52169 0.82631,67.72754 4.33408,74.51081 7.05561,13.64405 17.30173,17.04933 51.29958,17.04933 28.1691,0 31.00182,0.52914 42.0626,7.85714 11.39618,7.55022 13.51896,7.89316 54.3413,8.77908 l 42.48184,0.92193 -5.83113,-10.87962 c -3.20712,-5.98379 -5.83113,-13.83281 -5.83113,-17.44227 0,-8.75134 6.55342,-24.01106 12.39078,-28.85208 4.315,-3.5785 4.1245,-4.59084 -2.30087,-12.22696 -7.72507,-9.18072 -11.67284,-24.38311 -8.73528,-33.63852 1.04355,-3.28796 4.99251,-9.65646 8.77545,-14.15224 6.78481,-8.06328 6.80296,-8.24212 1.3387,-13.18721 -12.83796,-11.6182 -14.14294,-36.51957 -2.67769,-51.09527 l 5.78376,-7.35286 -6.0719,-8.21269 c -9.20526,-12.45078 -10.4506,-29.31725 -3.19277,-43.24172 5.94768,-11.41086 5.95237,-11.56242 0.35825,-11.56242 -7.02139,0 -7.10391,3.1191 1.54962,-58.57143 6.7621,-48.20663 6.93172,-52.1748 2.70735,-63.33966 -8.61866,-22.77888 -30.84518,-28.11088 -48.60613,-11.66034 z"
       id="path4151"
       inkscape:connector-curvature="0" />
    <path
       style="opacity:0.11000001;fill:#dc322f;fill-opacity:0.33000004;stroke-width:10;stroke-miterlimit:4;stroke-dasharray:none"
       d="m 423.90561,631.36344 c 10.53839,0.54816 28.53839,0.55181 40,0.008 11.46161,-0.54371 2.83929,-0.9922 -19.16071,-0.99666 -22,-0.004 -31.37768,0.44039 -20.83929,0.98856 z"
       id="path4153"
       inkscape:connector-curvature="0" />
    <path
       style="opacity:0.11000001;fill:#dc322f;fill-opacity:0.33000004;stroke-width:10;stroke-miterlimit:4;stroke-dasharray:none"
       d="m 390.32931,576.26056 c -7.70839,7.70839 -9.34733,22.56706 -3.35069,30.37746 7.63867,9.94909 15.42331,11.18098 70.65537,11.18098 l 54.69332,0 8.35165,-8.35165 c 8.9141,-8.9141 10.38675,-16.77441 5.02781,-26.83618 -6.73177,-12.63939 -9.68735,-13.19763 -70.37746,-13.29273 -57.81217,-0.0906 -58.00816,-0.0697 -65,6.92212 z"
       id="path4155"
       inkscape:connector-curvature="0" />
    <path
       style="opacity:0.11000001;fill:#dc322f;fill-opacity:0.33000004;stroke-width:10;stroke-miterlimit:4;stroke-dasharray:none"
       d="m 391.66797,640.45636 c -10.65608,10.65608 -11.16888,23.37658 -1.33866,33.2068 6.8761,6.87609 7.92823,7.01298 53.90041,7.01298 43.10846,0 47.49416,-0.47726 54.41558,-5.92165 5.45272,-4.28911 7.52817,-8.55698 7.52817,-15.48061 0,-24.03109 -7.26908,-27.16917 -62.93504,-27.16917 l -43.21881,0 -8.35165,8.35165 z"
       id="path4157"
       inkscape:connector-curvature="0" />
    <path
       style="opacity:0.11000001;fill:#dc322f;fill-opacity:0.33000004;stroke-width:10;stroke-miterlimit:4;stroke-dasharray:none"
       d="m 390.32931,513.40341 c -9.08009,9.0801 -9.12793,21.63644 -0.12236,32.11341 l 6.89063,8.01647 62.73215,0.91024 c 51.19516,0.74284 64.64396,0.11143 73.12755,-3.43324 11.78276,-4.92315 17.27667,-15.49401 14.53652,-27.96981 -3.47647,-15.82827 -7.52789,-16.65005 -82.08593,-16.65005 l -68.06557,0 -7.01299,7.01298 z"
       id="path4159"
       inkscape:connector-curvature="0" />
    <path
       style="opacity:0.11000001;fill:#dc322f;fill-opacity:0.33000004;stroke-width:10;stroke-miterlimit:4;stroke-dasharray:none"
       d="m 390.32931,447.68913 c -9.4921,9.49211 -9.68609,26.62253 -0.40027,35.34612 6.33431,5.95077 9.0182,6.21232 63.74697,6.21232 53.54882,0 57.52666,-0.36558 63.38728,-5.82558 9.47915,-8.83118 8.78381,-28.91183 -1.27513,-36.82419 -7.02878,-5.52884 -11.20707,-5.92166 -62.98701,-5.92166 -55.07271,0 -55.50768,0.0488 -62.47184,7.01299 z"
       id="path4161"
       inkscape:connector-curvature="0" />
    <path
       style="opacity:0.01000001;fill:#dc322f;fill-opacity:0.33000004;stroke-width:10;stroke-miterlimit:4;stroke-dasharray:none;filter:url(#filter4177)"
       d="M 69.353989,637.25246 C 40.983426,626.11917 17.205959,601.55909 7.1792334,573.03126 1.6849646,557.39909 1.54166,549.90706 2.2962989,317.74909 L 3.0737543,78.571714 11.093472,62.238083 C 26.947394,29.948652 55.474589,8.6942807 90.61118,2.9928936 114.12814,-0.82305067 570.82393,-1.0369796 593.99024,2.757097 c 36.34723,5.9527917 65.15797,27.092572 81.06154,59.478677 l 8.02197,16.33594 0,244.285716 0,244.28571 -7.7784,15.82352 c -9.92942,20.19937 -30.51625,40.7862 -50.6978,50.6978 l -15.80951,7.7644 -262.85714,0.60377 C 94.4153,642.61037 82.481786,642.40411 69.353989,637.25246 Z M 591.48318,547.93597 c 3.93197,-5.61368 4.44772,-31.84311 4.44772,-226.2036 0,-200.56656 -0.41483,-220.31194 -4.72855,-225.078538 -4.51028,-4.983818 -15.93962,-5.224975 -247.63217,-5.224975 -222.01489,0 -243.35295,0.406635 -248.128594,4.728537 -4.975829,4.503066 -5.224975,15.235586 -5.224975,225.078546 0,194.80977 0.515526,221.08603 4.447726,226.70003 l 4.447726,6.35003 243.961687,0 243.96169,0 4.44774,-6.35003 z"
       id="path4163"
       inkscape:connector-curvature="0"
       transform="matrix(1,0,0,-1,26.814,812.105)" />
    <path
       style="opacity:1;fill:#859900;fill-opacity:1;stroke:none;stroke-width:28.5714283;stroke-miterlimit:4;stroke-dasharray:none;stroke-opacity:1"
       d="M 73.999973,635.91746 C 47.822256,627.66631 23.753964,605.73171 11.075901,578.57171 l -8.0021424,-17.14285 0,-242.85715 0,-242.857138 L 11.093477,59.38094 C 26.157101,28.701094 53.430916,7.432831 86.785819,0.35565273 108.02656,-4.1511662 578.12096,-4.1511662 599.3617,0.35565273 632.71659,7.432831 659.99042,28.701094 675.05404,59.38094 l 8.01972,16.333632 0,242.857138 0,242.85715 -8.21192,17.7782 c -9.64574,20.88243 -32.25048,43.7436 -52.5002,53.09577 l -13.5736,6.26888 -261.42857,0.55318 c -209.423,0.44314 -263.801969,-0.19486 -273.359497,-3.20743 z M 591.48319,545.07883 c 3.93197,-5.61369 4.44771,-31.84312 4.44771,-226.2036 0,-200.56657 -0.41483,-220.311938 -4.72854,-225.078541 -4.51029,-4.983817 -15.93963,-5.224975 -247.63217,-5.224975 -222.01489,0 -243.35295,0.406635 -248.1286,4.728538 -4.975829,4.503062 -5.224974,15.235588 -5.224974,225.078548 0,194.80977 0.515525,221.08603 4.447725,226.70003 l 4.447726,6.35003 243.961693,0 243.96168,0 4.44775,-6.35003 z"
       id="path4403"
       inkscape:connector-curvature="0"
       transform="translate(26.814,169.83)" />
    <path
       style="opacity:1;fill:#859900;fill-opacity:1;stroke:none;stroke-width:10;stroke-miterlimit:4;stroke-dasharray:none;stroke-opacity:1"
       d="m 262.8437,509.51597 c -12.32524,-6.68817 -18.35822,-7.83134 -49.00409,-9.28571 -34.75651,-1.64943 -34.9997,-1.7098 -44.28571,-10.99372 l -9.33728,-9.33514 -0.86089,-67.06697 c -0.72194,-56.24299 -0.1381,-68.59012 3.6176,-76.50466 6.70675,-14.13343 17.52154,-19.18663 41.06301,-19.18663 18.34475,0 20.24874,-0.5558 22.02204,-6.42857 1.06762,-3.53571 15.3617,-35.32749 31.76464,-70.64839 17.49059,-37.66299 30.52094,-69.56389 31.51003,-77.14286 3.21567,-24.6403 16.43461,-40.63732 33.58015,-40.63732 13.49862,0 23.88481,7.11148 29.32556,20.07937 4.04781,9.64788 3.88938,14.2851 -1.96913,57.63492 -3.50411,25.92857 -7.04634,51.32142 -7.87161,56.42857 -1.31944,8.1652 -0.72619,9.28571 4.91622,9.28571 5.9829,0 6.13531,0.43462 2.25437,6.42857 -9.9975,15.44072 -9.17945,36.87026 1.8623,48.78451 l 6.32749,6.82748 -6.39897,8.02507 c -12.13967,15.2246 -11.18842,34.7114 2.40269,49.22009 l 6.022,6.42857 -6.022,6.42857 c -13.81227,14.74477 -14.51279,32.88386 -1.91786,49.66017 6.65969,8.87063 6.66897,8.9886 1.10365,14.02514 -12.23779,11.07506 -12.73065,37.2584 -0.94644,50.2798 4.67451,5.16529 3.64853,5.3206 -35.14352,5.3206 -37.88418,0 -40.68829,-0.39597 -54.01425,-7.62717 z"
       id="path4405"
       inkscape:connector-curvature="0"
       transform="translate(26.814,169.83)" />
    <path
       style="opacity:1;fill:#859900;fill-opacity:1;stroke:none;stroke-width:10;stroke-miterlimit:4;stroke-dasharray:none;stroke-opacity:1"
       d="m 364.28255,503.07721 c -10.83712,-10.83712 -10.83712,-21.03101 0,-31.86813 l 8.35165,-8.35165 45.77474,0 c 44.03987,0 46.07315,0.25668 53.64835,6.77259 11.03323,9.49039 11.03323,25.53585 0,35.02624 -7.5752,6.51591 -9.60848,6.7726 -53.64835,6.7726 l -45.77474,0 -8.35165,-8.35165 z"
       id="path4407"
       inkscape:connector-curvature="0"
       transform="translate(26.814,169.83)" />
    <path
       style="opacity:1;fill:#859900;fill-opacity:1;stroke:none;stroke-width:10;stroke-miterlimit:4;stroke-dasharray:none;stroke-opacity:1"
       d="m 370.30298,445.00729 c -15.45959,-8.02081 -18.20497,-26.8884 -5.72798,-39.36539 5.25127,-5.25127 9.7032,-5.64161 64.34292,-5.64161 58.51531,0 58.72351,0.0222 65.71428,7.01298 9.07964,9.07964 9.12784,21.63621 0.12329,32.1134 l -6.88969,8.01647 -55.25316,0.76262 c -40.62402,0.5607 -57.12149,-0.20671 -62.30966,-2.89847 z"
       id="path4409"
       inkscape:connector-curvature="0"
       transform="translate(26.814,169.83)" />
    <path
       style="opacity:1;fill:#859900;fill-opacity:1;stroke:none;stroke-width:10;stroke-miterlimit:4;stroke-dasharray:none;stroke-opacity:1"
       d="m 362.94389,312.9873 c -9.54143,-9.54143 -9.54143,-25.00403 0,-34.54546 6.97941,-6.97941 7.28716,-7.01298 64.28571,-7.01298 53.21728,0 57.67221,0.39948 62.91434,5.64161 12.05088,12.05088 9.62675,33.24697 -4.54059,39.70204 -4.4709,2.03708 -27.10795,3.22778 -61.36533,3.22778 -53.82231,0 -54.34042,-0.0593 -61.29413,-7.01299 z"
       id="path4413"
       inkscape:connector-curvature="0"
       transform="translate(26.814,169.83)" />
    <path
       style="opacity:1;fill:#85ad00;fill-opacity:1;stroke:none;stroke-width:10;stroke-miterlimit:4;stroke-dasharray:none;stroke-opacity:1"
       d="M 369.72266 335.71484 L 362.5332 344.07227 C 356.74203 350.80491 355.66371 354.41321 356.98047 362.64258 C 357.87941 368.26062 361.36768 375.10742 364.73242 377.85742 C 370.17992 382.30966 378.34133 382.85742 439.23438 382.85742 L 507.61914 382.85742 L 514.63281 375.84375 C 523.71528 366.76128 523.7609 354.20626 514.75 343.73047 L 507.85352 335.71484 L 438.78711 335.71484 L 369.72266 335.71484 z "
       transform="translate(26.814,169.83)"
       id="path4415" />
  </g>
  <metadata
     id="metadata12">
    <rdf:RDF>
      <cc:Work>
        <dc:format>image/svg+xml</dc:format>
        <dc:type
           rdf:resource="http://purl.org/dc/dcmitype/StillImage" />
        <cc:license
           rdf:resource="http://creativecommons.org/licenses/publicdomain/" />
        <dc:publisher>
          <cc:Agent
             rdf:about="http://openclipart.org/">
            <dc:title>Openclipart</dc:title>
          </cc:Agent>
        </dc:publisher>
        <dc:title></dc:title>
      </cc:Work>
      <cc:License
         rdf:about="http://creativecommons.org/licenses/publicdomain/">
        <cc:permits
           rdf:resource="http://creativecommons.org/ns#Reproduction" />
        <cc:permits
           rdf:resource="http://creativecommons.org/ns#Distribution" />
        <cc:permits
           rdf:resource="http://creativecommons.org/ns#DerivativeWorks" />
      </cc:License>
    </rdf:RDF>
  </metadata>
</svg>
